<svg xmlns="http://www.w3.org/2000/svg" width="1400" height="788" viewBox="0 0 1400 788" role="img" aria-labelledby="title desc">
  <title id="title">What Nature Always Knew: 7 Principles of Living Organizations </title>
  <desc id="desc">Abstract COIREA insight cover representing living logic through living-system lines, nodes, and natural rhythms.</desc>
  <defs>
    <linearGradient id="bg" x1="0" y1="0" x2="1" y2="1">
      <stop offset="0" stop-color="#12362d"/>
      <stop offset=".58" stop-color="#23635b"/>
      <stop offset="1" stop-color="#12362d"/>
    </linearGradient>
    <radialGradient id="glow" cx=".22" cy=".18" r=".72">
      <stop offset="0" stop-color="#d4b071" stop-opacity=".5"/>
      <stop offset=".42" stop-color="#d4b071" stop-opacity=".12"/>
      <stop offset="1" stop-color="#12362d" stop-opacity="0"/>
    </radialGradient>
    <filter id="soft"><feGaussianBlur stdDeviation="28"/></filter>
  </defs>
  <rect width="1400" height="788" fill="url(#bg)"/>
  <rect width="1400" height="788" fill="url(#glow)"/>
  <circle cx="354" cy="194" r="210" fill="#d4b071" opacity=".18" filter="url(#soft)"/>
  <circle cx="946" cy="526" r="260" fill="#e8efe2" opacity=".08" filter="url(#soft)"/>
  <path d="M-40 118 C 170 92, 270 144, 480 114 S 770 144, 980 100 S 1210 144, 1460 110" fill="none" stroke="#e8efe2" stroke-width="1" opacity="0.16"/><path d="M-40 200 C 170 165, 270 235, 480 196 S 770 235, 980 182 S 1210 235, 1460 192" fill="none" stroke="#e8efe2" stroke-width="1" opacity="0.178"/><path d="M-40 282 C 170 238, 270 326, 480 278 S 770 326, 980 264 S 1210 326, 1460 274" fill="none" stroke="#e8efe2" stroke-width="1" opacity="0.196"/><path d="M-40 364 C 170 338, 270 390, 480 360 S 770 390, 980 346 S 1210 390, 1460 356" fill="none" stroke="#e8efe2" stroke-width="2" opacity="0.214"/><path d="M-40 446 C 170 411, 270 481, 480 442 S 770 481, 980 428 S 1210 481, 1460 438" fill="none" stroke="#e8efe2" stroke-width="1" opacity="0.23199999999999998"/><path d="M-40 528 C 170 484, 270 572, 480 524 S 770 572, 980 510 S 1210 572, 1460 520" fill="none" stroke="#e8efe2" stroke-width="1" opacity="0.25"/><path d="M-40 610 C 170 584, 270 636, 480 606 S 770 636, 980 592 S 1210 636, 1460 602" fill="none" stroke="#e8efe2" stroke-width="1" opacity="0.268"/><path d="M658 536 C 841 466, 841 646, 1024 576" fill="none" stroke="#e8efe2" stroke-width="1.4" opacity=".24"/><path d="M432 190 C 449 120, 449 588, 466 518" fill="none" stroke="#e8efe2" stroke-width="1.4" opacity=".24"/><path d="M206 284 C 527 214, 527 530, 848 460" fill="none" stroke="#e8efe2" stroke-width="1.4" opacity=".24"/><path d="M920 378 C 605 308, 605 472, 290 402" fill="none" stroke="#e8efe2" stroke-width="1.4" opacity=".24"/><path d="M694 472 C 683 402, 683 414, 672 344" fill="none" stroke="#e8efe2" stroke-width="1.4" opacity=".24"/><path d="M468 566 C 761 496, 761 356, 1054 286" fill="none" stroke="#e8efe2" stroke-width="1.4" opacity=".24"/><path d="M242 220 C 369 150, 369 298, 496 228" fill="none" stroke="#e8efe2" stroke-width="1.4" opacity=".24"/><path d="M956 314 C 917 244, 917 240, 878 170" fill="none" stroke="#e8efe2" stroke-width="1.4" opacity=".24"/><path d="M730 408 C 525 338, 525 622, 320 552" fill="none" stroke="#e8efe2" stroke-width="1.4" opacity=".24"/><path d="M504 502 C 603 432, 603 564, 702 494" fill="none" stroke="#e8efe2" stroke-width="1.4" opacity=".24"/><circle cx="1129" cy="260" r="8" fill="#d4b071" opacity="0.72"/><circle cx="757" cy="486" r="9" fill="#23635b" opacity="0.38"/><circle cx="385" cy="212" r="10" fill="#23635b" opacity="0.38"/><circle cx="1063" cy="438" r="11" fill="#23635b" opacity="0.38"/><circle cx="691" cy="164" r="12" fill="#d4b071" opacity="0.72"/><circle cx="319" cy="390" r="13" fill="#23635b" opacity="0.38"/><circle cx="997" cy="616" r="5" fill="#23635b" opacity="0.38"/><circle cx="625" cy="342" r="6" fill="#23635b" opacity="0.38"/><circle cx="253" cy="568" r="7" fill="#d4b071" opacity="0.72"/><circle cx="931" cy="294" r="8" fill="#23635b" opacity="0.38"/><circle cx="559" cy="520" r="9" fill="#23635b" opacity="0.38"/><circle cx="187" cy="246" r="10" fill="#23635b" opacity="0.38"/><circle cx="865" cy="472" r="11" fill="#d4b071" opacity="0.72"/><g transform="translate(930 142)" fill="none"><circle cx="130" cy="210" r="148" stroke="#d4b071" stroke-width="2" opacity=".66"/><circle cx="130" cy="210" r="98" stroke="#e8efe2" stroke-width="1.5" opacity=".34"/><circle cx="130" cy="210" r="48" fill="#23635b" opacity=".54"/><path d="M130 62 A148 148 0 0 1 278 210" stroke="#d4b071" stroke-width="9" stroke-linecap="round"/><path d="M130 358 A148 148 0 0 1 -18 210" stroke="#e8efe2" stroke-width="5" stroke-linecap="round" opacity=".4"/></g>
  <g opacity=".92">
    <text x="92" y="116" font-size="18" font-family="Arial, sans-serif" font-weight="800" letter-spacing="5" fill="#d4b071">COIREA INSIGHT</text>
    <text x="92" y="616" font-size="54" font-family="Georgia, 'Times New Roman', serif" font-weight="700" fill="#e8efe2" opacity=".94">Living logic</text>
  </g>
  <path d="M92 664H420" stroke="#d4b071" stroke-width="2" opacity=".72"/>
  <text x="92" y="714" font-size="18" font-family="Arial, sans-serif" fill="#e8efe2" opacity=".7">Organizational Evolution</text>
</svg>
