<svg xmlns="http://www.w3.org/2000/svg" width="1400" height="788" viewBox="0 0 1400 788" role="img" aria-labelledby="title desc">
  <title id="title">Why the Most Human-Centered Companies Are the Most AI-Ready</title>
  <desc id="desc">Abstract COIREA insight cover representing human ai through living-system lines, nodes, and natural rhythms.</desc>
  <defs>
    <linearGradient id="bg" x1="0" y1="0" x2="1" y2="1">
      <stop offset="0" stop-color="#193b2b"/>
      <stop offset=".58" stop-color="#54724c"/>
      <stop offset="1" stop-color="#193b2b"/>
    </linearGradient>
    <radialGradient id="glow" cx=".22" cy=".18" r=".72">
      <stop offset="0" stop-color="#c29a58" stop-opacity=".5"/>
      <stop offset=".42" stop-color="#c29a58" stop-opacity=".12"/>
      <stop offset="1" stop-color="#193b2b" stop-opacity="0"/>
    </radialGradient>
    <filter id="soft"><feGaussianBlur stdDeviation="28"/></filter>
  </defs>
  <rect width="1400" height="788" fill="url(#bg)"/>
  <rect width="1400" height="788" fill="url(#glow)"/>
  <circle cx="344" cy="184" r="210" fill="#c29a58" opacity=".18" filter="url(#soft)"/>
  <circle cx="936" cy="576" r="260" fill="#f3eadb" opacity=".08" filter="url(#soft)"/>
  <path d="M-40 118 C 170 92, 270 144, 480 114 S 770 144, 980 100 S 1210 144, 1460 110" fill="none" stroke="#f3eadb" stroke-width="1" opacity="0.16"/><path d="M-40 200 C 170 165, 270 235, 480 196 S 770 235, 980 182 S 1210 235, 1460 192" fill="none" stroke="#f3eadb" stroke-width="1" opacity="0.178"/><path d="M-40 282 C 170 238, 270 326, 480 278 S 770 326, 980 264 S 1210 326, 1460 274" fill="none" stroke="#f3eadb" stroke-width="1" opacity="0.196"/><path d="M-40 364 C 170 338, 270 390, 480 360 S 770 390, 980 346 S 1210 390, 1460 356" fill="none" stroke="#f3eadb" stroke-width="2" opacity="0.214"/><path d="M-40 446 C 170 411, 270 481, 480 442 S 770 481, 980 428 S 1210 481, 1460 438" fill="none" stroke="#f3eadb" stroke-width="1" opacity="0.23199999999999998"/><path d="M-40 528 C 170 484, 270 572, 480 524 S 770 572, 980 510 S 1210 572, 1460 520" fill="none" stroke="#f3eadb" stroke-width="1" opacity="0.25"/><path d="M-40 610 C 170 584, 270 636, 480 606 S 770 636, 980 592 S 1210 636, 1460 602" fill="none" stroke="#f3eadb" stroke-width="1" opacity="0.268"/><path d="M758 496 C 616 426, 616 246, 474 176" fill="none" stroke="#f3eadb" stroke-width="1.4" opacity=".24"/><path d="M582 360 C 814 290, 814 358, 1046 288" fill="none" stroke="#f3eadb" stroke-width="1.4" opacity=".24"/><path d="M406 224 C 542 154, 542 470, 678 400" fill="none" stroke="#f3eadb" stroke-width="1.4" opacity=".24"/><path d="M230 528 C 270 458, 270 582, 310 512" fill="none" stroke="#f3eadb" stroke-width="1.4" opacity=".24"/><path d="M994 392 C 938 322, 938 254, 882 184" fill="none" stroke="#f3eadb" stroke-width="1.4" opacity=".24"/><path d="M818 256 C 666 186, 666 366, 514 296" fill="none" stroke="#f3eadb" stroke-width="1.4" opacity=".24"/><path d="M642 560 C 864 490, 864 478, 1086 408" fill="none" stroke="#f3eadb" stroke-width="1.4" opacity=".24"/><path d="M466 424 C 592 354, 592 590, 718 520" fill="none" stroke="#f3eadb" stroke-width="1.4" opacity=".24"/><path d="M290 288 C 320 218, 320 262, 350 192" fill="none" stroke="#f3eadb" stroke-width="1.4" opacity=".24"/><path d="M1054 592 C 988 522, 988 374, 922 304" fill="none" stroke="#f3eadb" stroke-width="1.4" opacity=".24"/><circle cx="769" cy="310" r="7" fill="#c29a58" opacity="0.72"/><circle cx="627" cy="546" r="8" fill="#54724c" opacity="0.38"/><circle cx="485" cy="282" r="9" fill="#54724c" opacity="0.38"/><circle cx="343" cy="518" r="10" fill="#54724c" opacity="0.38"/><circle cx="201" cy="254" r="11" fill="#c29a58" opacity="0.72"/><circle cx="1109" cy="490" r="12" fill="#54724c" opacity="0.38"/><circle cx="967" cy="226" r="13" fill="#54724c" opacity="0.38"/><circle cx="825" cy="462" r="5" fill="#54724c" opacity="0.38"/><circle cx="683" cy="198" r="6" fill="#c29a58" opacity="0.72"/><circle cx="541" cy="434" r="7" fill="#54724c" opacity="0.38"/><circle cx="399" cy="170" r="8" fill="#54724c" opacity="0.38"/><circle cx="257" cy="406" r="9" fill="#54724c" opacity="0.38"/><circle cx="1165" cy="142" r="10" fill="#c29a58" opacity="0.72"/><g transform="translate(920 180)" opacity=".9"><circle cx="120" cy="160" r="116" fill="none" stroke="#c29a58" stroke-width="2" opacity=".52"/><circle cx="120" cy="160" r="62" fill="#193b2b" opacity=".74"/><path d="M28 160H212M120 68V252M70 110L170 210M170 110L70 210" stroke="#f3eadb" stroke-width="2" opacity=".42"/></g>
  <g opacity=".92">
    <text x="92" y="116" font-size="18" font-family="Arial, sans-serif" font-weight="800" letter-spacing="5" fill="#c29a58">COIREA INSIGHT</text>
    <text x="92" y="616" font-size="54" font-family="Georgia, 'Times New Roman', serif" font-weight="700" fill="#f3eadb" opacity=".94">Human AI</text>
  </g>
  <path d="M92 664H420" stroke="#c29a58" stroke-width="2" opacity=".72"/>
  <text x="92" y="714" font-size="18" font-family="Arial, sans-serif" fill="#f3eadb" opacity=".7">Organizational Evolution</text>
</svg>
