<svg xmlns="http://www.w3.org/2000/svg" width="1400" height="788" viewBox="0 0 1400 788" role="img" aria-labelledby="title desc">
  <title id="title">Delegation Without Burnout: Holacratic Practices for Modern Leadership</title>
  <desc id="desc">Abstract COIREA insight cover representing delegation through living-system lines, nodes, and natural rhythms.</desc>
  <defs>
    <linearGradient id="bg" x1="0" y1="0" x2="1" y2="1">
      <stop offset="0" stop-color="#173728"/>
      <stop offset=".58" stop-color="#2f6b50"/>
      <stop offset="1" stop-color="#173728"/>
    </linearGradient>
    <radialGradient id="glow" cx=".22" cy=".18" r=".72">
      <stop offset="0" stop-color="#d2ad68" stop-opacity=".5"/>
      <stop offset=".42" stop-color="#d2ad68" stop-opacity=".12"/>
      <stop offset="1" stop-color="#173728" stop-opacity="0"/>
    </radialGradient>
    <filter id="soft"><feGaussianBlur stdDeviation="28"/></filter>
  </defs>
  <rect width="1400" height="788" fill="url(#bg)"/>
  <rect width="1400" height="788" fill="url(#glow)"/>
  <circle cx="193" cy="123" r="210" fill="#d2ad68" opacity=".18" filter="url(#soft)"/>
  <circle cx="987" cy="527" r="260" fill="#eef0df" opacity=".08" filter="url(#soft)"/>
  <path d="M-40 118 C 170 92, 270 144, 480 114 S 770 144, 980 100 S 1210 144, 1460 110" fill="none" stroke="#eef0df" stroke-width="1" opacity="0.16"/><path d="M-40 200 C 170 165, 270 235, 480 196 S 770 235, 980 182 S 1210 235, 1460 192" fill="none" stroke="#eef0df" stroke-width="1" opacity="0.178"/><path d="M-40 282 C 170 238, 270 326, 480 278 S 770 326, 980 264 S 1210 326, 1460 274" fill="none" stroke="#eef0df" stroke-width="1" opacity="0.196"/><path d="M-40 364 C 170 338, 270 390, 480 360 S 770 390, 980 346 S 1210 390, 1460 356" fill="none" stroke="#eef0df" stroke-width="2" opacity="0.214"/><path d="M-40 446 C 170 411, 270 481, 480 442 S 770 481, 980 428 S 1210 481, 1460 438" fill="none" stroke="#eef0df" stroke-width="1" opacity="0.23199999999999998"/><path d="M-40 528 C 170 484, 270 572, 480 524 S 770 572, 980 510 S 1210 572, 1460 520" fill="none" stroke="#eef0df" stroke-width="1" opacity="0.25"/><path d="M-40 610 C 170 584, 270 636, 480 606 S 770 636, 980 592 S 1210 636, 1460 602" fill="none" stroke="#eef0df" stroke-width="1" opacity="0.268"/><path d="M796 412 C 859.5 342, 859.5 462, 923 392" fill="none" stroke="#eef0df" stroke-width="1.4" opacity=".24"/><path d="M1109 475 C 1065.5 405, 1065.5 381, 1022 311" fill="none" stroke="#eef0df" stroke-width="1.4" opacity=".24"/><path d="M482 538 C 801.5 468, 801.5 300, 1121 230" fill="none" stroke="#eef0df" stroke-width="1.4" opacity=".24"/><path d="M795 161 C 537.5 91, 537.5 659, 280 589" fill="none" stroke="#eef0df" stroke-width="1.4" opacity=".24"/><path d="M1108 224 C 743.5 154, 743.5 578, 379 508" fill="none" stroke="#eef0df" stroke-width="1.4" opacity=".24"/><path d="M481 287 C 479.5 217, 479.5 497, 478 427" fill="none" stroke="#eef0df" stroke-width="1.4" opacity=".24"/><path d="M794 350 C 685.5 280, 685.5 416, 577 346" fill="none" stroke="#eef0df" stroke-width="1.4" opacity=".24"/><path d="M1107 413 C 891.5 343, 891.5 335, 676 265" fill="none" stroke="#eef0df" stroke-width="1.4" opacity=".24"/><path d="M480 476 C 627.5 406, 627.5 254, 775 184" fill="none" stroke="#eef0df" stroke-width="1.4" opacity=".24"/><path d="M793 539 C 833.5 469, 833.5 613, 874 543" fill="none" stroke="#eef0df" stroke-width="1.4" opacity=".24"/><circle cx="988" cy="515" r="9" fill="#d2ad68" opacity="0.72"/><circle cx="569" cy="192" r="10" fill="#2f6b50" opacity="0.38"/><circle cx="150" cy="369" r="11" fill="#2f6b50" opacity="0.38"/><circle cx="781" cy="546" r="12" fill="#2f6b50" opacity="0.38"/><circle cx="362" cy="223" r="13" fill="#d2ad68" opacity="0.72"/><circle cx="993" cy="400" r="5" fill="#2f6b50" opacity="0.38"/><circle cx="574" cy="577" r="6" fill="#2f6b50" opacity="0.38"/><circle cx="155" cy="254" r="7" fill="#2f6b50" opacity="0.38"/><circle cx="786" cy="431" r="8" fill="#d2ad68" opacity="0.72"/><circle cx="367" cy="608" r="9" fill="#2f6b50" opacity="0.38"/><circle cx="998" cy="285" r="10" fill="#2f6b50" opacity="0.38"/><circle cx="579" cy="462" r="11" fill="#2f6b50" opacity="0.38"/><circle cx="160" cy="139" r="12" fill="#d2ad68" opacity="0.72"/><g transform="translate(800 112)"><path d="M30 410 C150 260 220 330 310 185 C370 90 430 80 512 54" fill="none" stroke="#d2ad68" stroke-width="5" stroke-linecap="round"/><circle cx="30" cy="410" r="18" fill="#eef0df" opacity=".8"/><circle cx="310" cy="185" r="24" fill="#2f6b50" opacity=".62"/><circle cx="512" cy="54" r="30" fill="#d2ad68" opacity=".78"/></g>
  <g opacity=".92">
    <text x="92" y="116" font-size="18" font-family="Arial, sans-serif" font-weight="800" letter-spacing="5" fill="#d2ad68">COIREA INSIGHT</text>
    <text x="92" y="616" font-size="54" font-family="Georgia, 'Times New Roman', serif" font-weight="700" fill="#eef0df" opacity=".94">Delegation</text>
  </g>
  <path d="M92 664H420" stroke="#d2ad68" stroke-width="2" opacity=".72"/>
  <text x="92" y="714" font-size="18" font-family="Arial, sans-serif" fill="#eef0df" opacity=".7">Organizational Evolution</text>
</svg>
